<svg version="1.1"
     width="100" height="100"
     xmlns="http://www.w3.org/2000/svg">

    <ellipse cx="65" cy="05" rx="30" ry="15" fill="black" fill-opacity=".15" stroke="white" transform="rotate(45)"></ellipse>
    <ellipse cx="60" cy="05" rx="30" ry="15" fill="black" fill-opacity=".15" stroke="white" transform="rotate(45)"></ellipse>
    <ellipse cx="55" cy="05" rx="30" ry="15" fill="black" fill-opacity=".15" stroke="white" transform="rotate(45)"></ellipse>
    <ellipse cx="50" cy="05" rx="30" ry="15" fill="black" fill-opacity=".15" stroke="white" transform="rotate(45)"></ellipse>
    <ellipse cx="45" cy="05" rx="30" ry="15" fill="black" fill-opacity=".15" stroke="white" transform="rotate(45)"></ellipse>
    
    <ellipse cx="05" cy="75" rx="30" ry="15" fill="black" fill-opacity=".15" stroke="white" transform="rotate(-45)"></ellipse>
    <ellipse cx="10" cy="75" rx="30" ry="15" fill="black" fill-opacity=".15" stroke="white" transform="rotate(-45)"></ellipse>
    <ellipse cx="15" cy="75" rx="30" ry="15" fill="black" fill-opacity=".15" stroke="white" transform="rotate(-45)"></ellipse>
    <ellipse cx="20" cy="75" rx="30" ry="15" fill="black" fill-opacity=".15" stroke="white" transform="rotate(-45)"></ellipse>
    <ellipse cx="25" cy="75" rx="30" ry="15" fill="black" fill-opacity=".15" stroke="white" transform="rotate(-45)"></ellipse>

    <ellipse cx="50" cy="50" rx="30" ry="30" stroke="white" fill="black" stroke-width="3"></ellipse>

    <ellipse cx="50" cy="50" rx="22" ry="30" stroke="white" fill="transparent"></ellipse>
    <ellipse cx="50" cy="50" rx="14" ry="30" stroke="white" fill="transparent"></ellipse>
    <ellipse cx="50" cy="50" rx="6" ry="30" stroke="white" fill="transparent"></ellipse>
    <ellipse cx="50" cy="50" rx="2" ry="30" stroke="white" fill="transparent"></ellipse>
    <ellipse cx="50" cy="50" rx="10" ry="30" stroke="white" fill="transparent"></ellipse>
    <ellipse cx="50" cy="50" rx="18" ry="30" stroke="white" fill="transparent"></ellipse>
    <ellipse cx="50" cy="50" rx="26" ry="30" stroke="white" fill="transparent"></ellipse>

    <ellipse cx="50" cy="50" ry="22" rx="30" stroke="white" fill="transparent"></ellipse>
    <ellipse cx="50" cy="50" ry="14" rx="30" stroke="white" fill="transparent"></ellipse>
    <ellipse cx="50" cy="50" ry="6" rx="30" stroke="white" fill="transparent"></ellipse>
    
    <ellipse cx="50" cy="50" rx="30" ry="30" stroke="white" fill="black" fill-opacity=".15" stroke-width="1"></ellipse>

    <circle cx="40" cy="40" fill="black" r="5" stroke="white"></circle>
    <circle cx="60" cy="40" fill="black" r="5" stroke="white"></circle>
    <path d="M 40 65 q 0 -4 6 -4 q 2 0 4 -2 q 2 2 4 2 q 6 0 6 4 a 0.2 0.04 0 0 1 -20 0" stroke="white"></path>
</svg>